# xmcd
#
# Track frame offsets:
#	150
#	12243
#	26257
#	38977
#	51405
#	62789
#	75541
#	87346
#	100457
#	111606
#	121550
#	133518
#	144070
#	155527
#	168088
#	178725
#	191146
#	201562
#	210576
#	220119
#
# Disc length: 3151 seconds
#
# Revision: 0
# Processed by: cddbd v1.5.1PL0 Copyright (c) Steve Scherf et al.
# Submitted via: audiograbber 1.83.01
#
DISCID=190c4d14
DTITLE=Verzameling - Country - The Essential Album - Disc II
DYEAR=2005
DGENRE=Country
TTITLE0=Dolly Parton - Jolene
TTITLE1=Rita Remington - Angel Of The Morning
TTITLE2=LeeAnn Rimes - Blue
TTITLE3=Charlie Rich - Behind Closed Doors
TTITLE4=Stonewall Jackson - Have I Told You Lately That I Love You
TTITLE5=Lynn Anderson - Rose Garden
TTITLE6=Barbara Fairchild - You Can´t Put The City In A Country Girl
TTITLE7=Bobby Helms - My Special Angel
TTITLE8=Don Gibson - Oh Lonesome Me
TTITLE9=Patti Page - A Poor Man´s Roses
TTITLE10=Donna Fargo - Funny Face
TTITLE11=Roger Miller - King Of The Road
TTITLE12=Patsy Cline - Walkin´ After Midnight
TTITLE13=Johnny Cash - Folsom Prison Blues
TTITLE14=Waylon Jennings - Burning Memories
TTITLE15=Hank Williams - I Saw The Light
TTITLE16=Willie Nelson - Broken Promises
TTITLE17=Jerry Lee Lewis - Jambalaya
TTITLE18=Dave Dudley - Six Days On The Road
TTITLE19=The Charlie Daniels Band - Devil Went Down To Georgia
EXTD=
EXTT0=
EXTT1=
EXTT2=
EXTT3=
EXTT4=
EXTT5=
EXTT6=
EXTT7=
EXTT8=
EXTT9=
EXTT10=
EXTT11=
EXTT12=
EXTT13=
EXTT14=
EXTT15=
EXTT16=
EXTT17=
EXTT18=
EXTT19=
PLAYORDER=
